<?xml version="1.0" encoding="UTF-8"?>
<svg width="100px" height="111px" viewBox="0 0 100 111" version="1.1" xmlns="http://www.w3.org/2000/svg" xmlns:xlink="http://www.w3.org/1999/xlink">
    <!-- Generator: Sketch 52.6 (67491) - http://www.bohemiancoding.com/sketch -->
    <title>houzez-logo-icon</title>
    <desc>Created with Sketch.</desc>
    <g id="houzez-logo-icon" stroke="none" stroke-width="1" fill="none" fill-rule="evenodd">
        <path d="M50.5,3 C76.7339223,3 98,24.2660777 98,50.5 C98,87.7773483 50.5,107.588557 50.5,107.588557 C50.5,107.588557 3,87.1046836 3,50.5 C3,24.2660777 24.2660777,3 50.5,3 Z M50.5,12.9712355 C29.8065037,12.9712355 12.9712355,29.9730198 12.9712355,50.8711937 C12.9712355,76.2953482 42.1937418,92.7920449 50.5280191,96.977056 C58.844084,92.8868373 88.0287645,76.6900805 88.0287645,50.8711937 C88.0287645,29.9730198 71.1934963,12.9712355 50.5,12.9712355 Z M50.3565188,66.8568598 C41.2431467,66.8568598 33.8561777,59.4698909 33.8561777,50.3565188 C33.8561777,41.2431467 41.2431467,33.8561777 50.3565188,33.8561777 C59.4698909,33.8561777 66.8568598,41.2431467 66.8568598,50.3565188 C66.8568598,59.4698909 59.4698909,66.8568598 50.3565188,66.8568598 Z" id="Combined-Shape" fill="#A0A5AA"></path>
    </g>
</svg>